<?xml version="1.0" encoding="utf-8"?>
<!-- Generator: Adobe Illustrator 22.0.1, SVG Export Plug-In . SVG Version: 6.00 Build 0)  -->
<svg version="1.1" xmlns="http://www.w3.org/2000/svg" xmlns:xlink="http://www.w3.org/1999/xlink" x="0px" y="0px"
	 viewBox="0 0 212 71" style="enable-background:new 0 0 212 71;" xml:space="preserve">
<style type="text/css">
	.st0{fill:#FFFFFF;}
	.st1{fill:#FEFEFE;}
	.st2{fill:#FDFDFD;}
	.st3{fill:#FCFCFC;}
	.st4{fill:#FBFBFB;}
	.st5{fill:#FAFAFA;}
	.st6{fill:#F9F9F9;}
	.st7{fill:#F8F8F8;}
	.st8{fill:#F7F7F7;}
	.st9{fill:#F6F6F6;}
	.st10{fill:#F5F5F5;}
	.st11{fill:#F4F4F4;}
	.st12{fill:#F3F3F3;}
	.st13{fill:#F2F2F2;}
	.st14{fill:#F1F1F1;}
	.st15{fill:#F0F0F0;}
	.st16{fill:#EFEFEF;}
	.st17{fill:#EEEEEE;}
	.st18{fill:#EDEDED;}
	.st19{fill:#ECECEC;}
	.st20{fill:#EBEBEB;}
	.st21{fill:#EAEAEA;}
	.st22{fill:#E9E9E9;}
	.st23{fill:#E8E8E8;}
	.st24{fill:#E7E7E7;}
	.st25{fill:#E6E6E6;}
	.st26{fill:#E5E5E5;}
	.st27{fill:#E4E4E4;}
	.st28{fill:#E3E3E3;}
	.st29{fill:#E2E2E2;}
	.st30{fill:#E1E1E1;}
	.st31{fill:#E0E0E0;}
	.st32{fill:#DFDFDF;}
	.st33{fill:#DEDEDE;}
	.st34{fill:#DDDDDD;}
	.st35{fill:#DCDCDC;}
	.st36{fill:#DBDBDB;}
	.st37{fill:#DADADA;}
	.st38{fill:#D9D9D9;}
	.st39{fill:#D8D8D8;}
	.st40{fill:#D7D7D7;}
	.st41{fill:#D6D6D6;}
	.st42{fill:#D5D5D5;}
	.st43{fill:#D4D4D4;}
	.st44{fill:#D3D3D3;}
	.st45{fill:#D2D2D2;}
	.st46{fill:#D1D1D1;}
	.st47{fill:#D0D0D0;}
	.st48{fill:#CFCFCF;}
	.st49{fill:#CECECE;}
	.st50{fill:#CDCDCD;}
	.st51{fill:#CCCCCC;}
	.st52{fill:#CBCBCB;}
	.st53{fill:#CACACA;}
	.st54{fill:#C9C9C9;}
	.st55{fill:#C8C8C8;}
	.st56{fill:#C7C7C7;}
	.st57{fill:#C6C6C6;}
	.st58{fill:#C5C5C5;}
	.st59{fill:#C4C4C4;}
	.st60{fill:#C3C3C3;}
	.st61{fill:#C2C2C2;}
	.st62{fill:#C1C1C1;}
	.st63{fill:#C0C0C0;}
	.st64{fill:#BFBFBF;}
	.st65{fill:#BEBEBE;}
	.st66{fill:#BDBDBD;}
	.st67{fill:#BCBCBC;}
	.st68{fill:#BBBBBB;}
	.st69{fill:#BABABA;}
	.st70{fill:#B9B9B9;}
	.st71{fill:#B8B8B8;}
	.st72{fill:url(#SVGID_1_);}
	.st73{opacity:0.5;}
	.st74{fill:#333333;}
	.st75{font-family:'ArialNarrow-Bold';}
	.st76{font-size:19px;}
	.st77{fill:#1488C6;}
</style>
<g id="Layer_1">
	<g>
		<path class="st0" d="M11.1,71C5,71,0,66,0,59.8V11.2C0,5,5,0,11.1,0h189.8C207,0,212,5,212,11.2v48.7c0,6.2-5,11.2-11.1,11.2H11.1
			z"/>
		<path class="st1" d="M11.1,70.9c-6.1,0-11-5-11-11.1V11.1C0.1,5,5,0.1,11.1,0.1h189.8c6.1,0,11,5,11,11.1v48.7
			c0,6.1-4.9,11.1-11,11.1H11.1z"/>
		<path class="st2" d="M11.1,70.8c-6,0-11-4.9-11-11V11.1c0-6.1,4.9-11,11-11h189.7c6,0,11,4.9,11,11v48.7c0,6.1-4.9,11-11,11H11.1z
			"/>
		<path class="st3" d="M11.1,70.7c-6,0-10.9-4.9-10.9-10.9V11.1c0-6,4.9-10.9,10.9-10.9h189.7c6,0,10.9,4.9,10.9,10.9v48.7
			c0,6-4.9,10.9-10.9,10.9H11.1z"/>
		<path class="st4" d="M11.1,70.6c-6,0-10.8-4.9-10.8-10.9V11.1c0-6,4.9-10.9,10.8-10.9h189.7c6,0,10.8,4.9,10.8,10.9v48.6
			c0,6-4.9,10.9-10.8,10.9H11.1z"/>
		<path class="st5" d="M11.1,70.5c-5.9,0-10.8-4.8-10.8-10.8V11.1c0-6,4.8-10.8,10.8-10.8h189.7c5.9,0,10.8,4.8,10.8,10.8v48.6
			c0,6-4.8,10.8-10.8,10.8H11.1z"/>
		<path class="st6" d="M11.1,70.4c-5.9,0-10.7-4.8-10.7-10.7V11.1c0-5.9,4.8-10.7,10.7-10.7h189.6c5.9,0,10.7,4.8,10.7,10.7v48.6
			c0,5.9-4.8,10.7-10.7,10.7H11.1z"/>
		<path class="st7" d="M11.1,70.3c-5.8,0-10.6-4.8-10.6-10.7V11c0-5.9,4.8-10.7,10.6-10.7h189.6c5.8,0,10.6,4.8,10.6,10.7v48.6
			c0,5.9-4.8,10.7-10.6,10.7H11.1z"/>
		<path class="st8" d="M11.1,70.2c-5.8,0-10.5-4.7-10.5-10.6V11c0-5.8,4.7-10.6,10.5-10.6h189.6c5.8,0,10.5,4.7,10.5,10.6v48.6
			c0,5.8-4.7,10.6-10.5,10.6H11.1z"/>
		<path class="st9" d="M11.1,70.1c-5.8,0-10.5-4.7-10.5-10.5V11c0-5.8,4.7-10.5,10.5-10.5h189.6c5.8,0,10.5,4.7,10.5,10.5v48.6
			c0,5.8-4.7,10.5-10.5,10.5H11.1z"/>
		<path class="st10" d="M11.1,70C5.4,70,0.7,65.3,0.7,59.6V11c0-5.8,4.7-10.4,10.4-10.4h189.5c5.7,0,10.4,4.7,10.4,10.4v48.6
			c0,5.8-4.7,10.4-10.4,10.4H11.1z"/>
		<path class="st11" d="M11.1,69.9c-5.7,0-10.3-4.7-10.3-10.4V11c0-5.7,4.6-10.4,10.3-10.4h189.5c5.7,0,10.3,4.7,10.3,10.4v48.6
			c0,5.7-4.6,10.4-10.3,10.4H11.1z"/>
		<path class="st12" d="M11.1,69.8c-5.7,0-10.3-4.6-10.3-10.3V11c0-5.7,4.6-10.3,10.3-10.3h189.5c5.7,0,10.3,4.6,10.3,10.3v48.6
			c0,5.7-4.6,10.3-10.3,10.3H11.1z"/>
		<path class="st13" d="M11.1,69.7c-5.6,0-10.2-4.6-10.2-10.2V10.9c0-5.6,4.6-10.2,10.2-10.2h189.5c5.6,0,10.2,4.6,10.2,10.2v48.6
			c0,5.6-4.6,10.2-10.2,10.2H11.1z"/>
		<path class="st14" d="M11.1,69.6C5.5,69.6,1,65.1,1,59.5V10.9C1,5.3,5.5,0.8,11.1,0.8h189.4c5.6,0,10.1,4.6,10.1,10.2v48.6
			c0,5.6-4.5,10.2-10.1,10.2H11.1z"/>
		<path class="st15" d="M11.1,69.5C5.5,69.5,1,65,1,59.5V10.9c0-5.6,4.5-10.1,10-10.1h189.4c5.5,0,10,4.5,10,10.1v48.5
			c0,5.6-4.5,10.1-10,10.1H11.1z"/>
		<path class="st16" d="M11.1,69.4c-5.5,0-10-4.5-10-10V10.9c0-5.5,4.5-10,10-10h189.4c5.5,0,10,4.5,10,10v48.5c0,5.5-4.5,10-10,10
			H11.1z"/>
		<path class="st17" d="M11.1,69.3c-5.5,0-9.9-4.5-9.9-9.9V10.9c0-5.5,4.4-9.9,9.9-9.9h189.4c5.5,0,9.9,4.5,9.9,9.9v48.5
			c0,5.5-4.4,9.9-9.9,9.9H11.1z"/>
		<path class="st18" d="M11.1,69.2c-5.4,0-9.8-4.4-9.8-9.9V10.9C1.2,5.4,5.7,1,11.1,1h189.3c5.4,0,9.8,4.4,9.8,9.9v48.5
			c0,5.4-4.4,9.9-9.8,9.9H11.1z"/>
		<path class="st19" d="M11.1,69.2c-5.4,0-9.8-4.4-9.8-9.8V10.9c0-5.4,4.4-9.8,9.8-9.8h189.3c5.4,0,9.8,4.4,9.8,9.8v48.5
			c0,5.4-4.4,9.8-9.8,9.8H11.1z"/>
		<path class="st20" d="M11.1,69.1c-5.3,0-9.7-4.4-9.7-9.7V10.8c0-5.4,4.3-9.7,9.7-9.7h189.3c5.3,0,9.7,4.4,9.7,9.7v48.5
			c0,5.4-4.3,9.7-9.7,9.7H11.1z"/>
		<path class="st21" d="M11.1,69c-5.3,0-9.6-4.3-9.6-9.7V10.8c0-5.3,4.3-9.7,9.6-9.7h189.3c5.3,0,9.6,4.3,9.6,9.7v48.5
			c0,5.3-4.3,9.7-9.6,9.7H11.1z"/>
		<path class="st22" d="M11.1,68.9c-5.3,0-9.5-4.3-9.5-9.6V10.8c0-5.3,4.3-9.6,9.5-9.6h189.2c5.3,0,9.5,4.3,9.5,9.6v48.5
			c0,5.3-4.3,9.6-9.5,9.6H11.1z"/>
		<path class="st23" d="M11.1,68.8c-5.2,0-9.5-4.3-9.5-9.5V10.8c0-5.2,4.3-9.5,9.5-9.5h189.2c5.2,0,9.5,4.3,9.5,9.5v48.5
			c0,5.2-4.3,9.5-9.5,9.5H11.1z"/>
		<path class="st24" d="M11.1,68.7c-5.2,0-9.4-4.2-9.4-9.4V10.8c0-5.2,4.2-9.4,9.4-9.4h189.2c5.2,0,9.4,4.2,9.4,9.4v48.5
			c0,5.2-4.2,9.4-9.4,9.4H11.1z"/>
		<path class="st25" d="M11.1,68.6c-5.1,0-9.3-4.2-9.3-9.4V10.8c0-5.2,4.2-9.4,9.3-9.4h189.2c5.1,0,9.3,4.2,9.3,9.4v48.4
			c0,5.2-4.2,9.4-9.3,9.4H11.1z"/>
		<path class="st26" d="M11.1,68.5c-5.1,0-9.3-4.2-9.3-9.3V10.7c0-5.1,4.2-9.3,9.3-9.3h189.1c5.1,0,9.3,4.2,9.3,9.3v48.4
			c0,5.1-4.2,9.3-9.3,9.3H11.1z"/>
		<path class="st27" d="M11.1,68.4c-5.1,0-9.2-4.1-9.2-9.2V10.7c0-5.1,4.1-9.2,9.2-9.2h189.1c5.1,0,9.2,4.1,9.2,9.2v48.4
			c0,5.1-4.1,9.2-9.2,9.2H11.1z"/>
		<path class="st28" d="M11.1,68.3c-5,0-9.1-4.1-9.1-9.2V10.7c0-5,4.1-9.2,9.1-9.2h189.1c5,0,9.1,4.1,9.1,9.2v48.4
			c0,5-4.1,9.2-9.1,9.2H11.1z"/>
		<path class="st29" d="M11.1,68.2c-5,0-9-4.1-9-9.1V10.7c0-5,4.1-9.1,9-9.1h189.1c5,0,9,4.1,9,9.1v48.4c0,5-4.1,9.1-9,9.1H11.1z"/>
		<path class="st30" d="M11.1,68.1c-4.9,0-9-4-9-9V10.7c0-5,4-9,9-9h189c4.9,0,9,4,9,9v48.4c0,5-4,9-9,9H11.1z"/>
		<path class="st31" d="M11.1,68c-4.9,0-8.9-4-8.9-8.9V10.7c0-4.9,4-8.9,8.9-8.9h189c4.9,0,8.9,4,8.9,8.9V59c0,4.9-4,8.9-8.9,8.9
			H11.1z"/>
		<path class="st32" d="M11.1,67.9c-4.9,0-8.8-4-8.8-8.9V10.6c0-4.9,4-8.9,8.8-8.9h189c4.9,0,8.8,4,8.8,8.9V59c0,4.9-4,8.9-8.8,8.9
			H11.1z"/>
		<path class="st33" d="M11.1,67.8c-4.8,0-8.8-3.9-8.8-8.8V10.6c0-4.8,3.9-8.8,8.8-8.8h189c4.8,0,8.8,3.9,8.8,8.8V59
			c0,4.8-3.9,8.8-8.8,8.8H11.1z"/>
		<path class="st34" d="M11.1,67.7c-4.8,0-8.7-3.9-8.7-8.7V10.6c0-4.8,3.9-8.7,8.7-8.7H200c4.8,0,8.7,3.9,8.7,8.7V59
			c0,4.8-3.9,8.7-8.7,8.7H11.1z"/>
		<path class="st35" d="M11.1,67.6c-4.8,0-8.6-3.9-8.6-8.7V10.6c0-4.8,3.9-8.7,8.6-8.7H200c4.8,0,8.6,3.9,8.6,8.7v48.4
			c0,4.8-3.9,8.7-8.6,8.7H11.1z"/>
		<path class="st35" d="M11.1,67.5c-4.7,0-8.6-3.9-8.6-8.6V10.6C2.5,5.9,6.3,2,11.1,2h188.9c4.7,0,8.6,3.9,8.6,8.6v48.3
			c0,4.7-3.8,8.6-8.6,8.6H11.1z"/>
		<path class="st36" d="M11.1,67.4c-4.7,0-8.5-3.8-8.5-8.5V10.6c0-4.7,3.8-8.5,8.5-8.5h188.9c4.7,0,8.5,3.8,8.5,8.5v48.3
			c0,4.7-3.8,8.5-8.5,8.5H11.1z"/>
		<path class="st37" d="M11,67.3c-4.6,0-8.4-3.8-8.4-8.4V10.5c0-4.6,3.8-8.4,8.4-8.4h188.8c4.6,0,8.4,3.8,8.4,8.4v48.3
			c0,4.6-3.8,8.4-8.4,8.4H11z"/>
		<path class="st38" d="M11,67.2c-4.6,0-8.3-3.8-8.3-8.4V10.5c0-4.6,3.7-8.4,8.3-8.4h188.8c4.6,0,8.3,3.8,8.3,8.4v48.3
			c0,4.6-3.7,8.4-8.3,8.4H11z"/>
		<path class="st39" d="M11,67.1c-4.6,0-8.3-3.7-8.3-8.3V10.5c0-4.6,3.7-8.3,8.3-8.3h188.8c4.6,0,8.3,3.7,8.3,8.3v48.3
			c0,4.6-3.7,8.3-8.3,8.3H11z"/>
		<path class="st40" d="M11,67c-4.5,0-8.2-3.7-8.2-8.2V10.5C2.8,6,6.5,2.3,11,2.3h188.8c4.5,0,8.2,3.7,8.2,8.2v48.3
			c0,4.5-3.7,8.2-8.2,8.2H11z"/>
		<path class="st41" d="M11,66.9c-4.5,0-8.1-3.7-8.1-8.1V10.5C2.9,6,6.6,2.3,11,2.3h188.7c4.5,0,8.1,3.7,8.1,8.1v48.3
			c0,4.5-3.7,8.1-8.1,8.1H11z"/>
		<path class="st42" d="M11,66.8c-4.4,0-8.1-3.6-8.1-8.1V10.5C3,6,6.6,2.4,11,2.4h188.7c4.4,0,8.1,3.6,8.1,8.1v48.3
			c0,4.4-3.6,8.1-8.1,8.1H11z"/>
		<path class="st43" d="M11,66.7c-4.4,0-8-3.6-8-8V10.5c0-4.4,3.6-8,8-8h188.7c4.4,0,8,3.6,8,8v48.3c0,4.4-3.6,8-8,8H11z"/>
		<path class="st44" d="M11,66.6c-4.4,0-7.9-3.6-7.9-7.9V10.4c0-4.4,3.6-7.9,7.9-7.9h188.7c4.4,0,7.9,3.6,7.9,7.9v48.3
			c0,4.4-3.6,7.9-7.9,7.9H11z"/>
		<path class="st45" d="M11,66.5c-4.3,0-7.8-3.5-7.8-7.9V10.4c0-4.3,3.5-7.9,7.8-7.9h188.6c4.3,0,7.8,3.5,7.8,7.9v48.2
			c0,4.3-3.5,7.9-7.8,7.9H11z"/>
		<path class="st46" d="M11,66.4c-4.3,0-7.8-3.5-7.8-7.8V10.4c0-4.3,3.5-7.8,7.8-7.8h188.6c4.3,0,7.8,3.5,7.8,7.8v48.2
			c0,4.3-3.5,7.8-7.8,7.8H11z"/>
		<path class="st47" d="M11,66.3c-4.2,0-7.7-3.5-7.7-7.7V10.4c0-4.3,3.5-7.7,7.7-7.7h188.6c4.2,0,7.7,3.5,7.7,7.7v48.2
			c0,4.3-3.5,7.7-7.7,7.7H11z"/>
		<path class="st48" d="M11,66.2c-4.2,0-7.6-3.4-7.6-7.6V10.4c0-4.2,3.4-7.6,7.6-7.6h188.6c4.2,0,7.6,3.4,7.6,7.6v48.2
			c0,4.2-3.4,7.6-7.6,7.6H11z"/>
		<path class="st49" d="M11,66.1c-4.2,0-7.6-3.4-7.6-7.6V10.4c0-4.2,3.4-7.6,7.6-7.6h188.5c4.2,0,7.6,3.4,7.6,7.6v48.2
			c0,4.2-3.4,7.6-7.6,7.6H11z"/>
		<path class="st50" d="M11,66c-4.1,0-7.5-3.4-7.5-7.5V10.3c0-4.1,3.4-7.5,7.5-7.5h188.5c4.1,0,7.5,3.4,7.5,7.5v48.2
			c0,4.1-3.4,7.5-7.5,7.5H11z"/>
		<path class="st51" d="M11,65.9c-4.1,0-7.4-3.3-7.4-7.4V10.3c0-4.1,3.3-7.4,7.4-7.4h188.5c4.1,0,7.4,3.3,7.4,7.4v48.2
			c0,4.1-3.3,7.4-7.4,7.4H11z"/>
		<path class="st52" d="M11,65.8c-4,0-7.3-3.3-7.3-7.4V10.3C3.7,6.3,7,2.9,11,2.9h188.5c4,0,7.3,3.3,7.3,7.4v48.2
			c0,4.1-3.3,7.4-7.3,7.4H11z"/>
		<path class="st53" d="M11,65.8c-4,0-7.3-3.3-7.3-7.3V10.3C3.7,6.3,7,3,11,3h188.4c4,0,7.3,3.3,7.3,7.3v48.2c0,4-3.3,7.3-7.3,7.3
			H11z"/>
		<path class="st54" d="M11,65.7c-4,0-7.2-3.2-7.2-7.2V10.3c0-4,3.2-7.2,7.2-7.2h188.4c4,0,7.2,3.2,7.2,7.2v48.2
			c0,4-3.2,7.2-7.2,7.2H11z"/>
		<path class="st55" d="M11,65.6c-3.9,0-7.1-3.2-7.1-7.1V10.3c0-3.9,3.2-7.1,7.1-7.1h188.4c3.9,0,7.1,3.2,7.1,7.1v48.2
			c0,3.9-3.2,7.1-7.1,7.1H11z"/>
		<path class="st56" d="M11,65.5c-3.9,0-7.1-3.2-7.1-7.1V10.2C4,6.3,7.1,3.2,11,3.2h188.4c3.9,0,7.1,3.2,7.1,7.1v48.1
			c0,3.9-3.2,7.1-7.1,7.1H11z"/>
		<path class="st57" d="M11,65.4c-3.8,0-7-3.1-7-7V10.2c0-3.9,3.1-7,7-7h188.3c3.8,0,7,3.1,7,7v48.1c0,3.9-3.1,7-7,7H11z"/>
		<path class="st58" d="M11,65.3c-3.8,0-6.9-3.1-6.9-6.9V10.2c0-3.8,3.1-6.9,6.9-6.9h188.3c3.8,0,6.9,3.1,6.9,6.9v48.1
			c0,3.8-3.1,6.9-6.9,6.9H11z"/>
		<path class="st59" d="M11,65.2c-3.8,0-6.9-3.1-6.9-6.9V10.2c0-3.8,3.1-6.9,6.9-6.9h188.3c3.8,0,6.9,3.1,6.9,6.9v48.1
			c0,3.8-3.1,6.9-6.9,6.9H11z"/>
		<path class="st60" d="M11,65.1c-3.7,0-6.8-3.1-6.8-6.8V10.2c0-3.7,3-6.8,6.8-6.8h188.3c3.7,0,6.8,3.1,6.8,6.8v48.1
			c0,3.7-3,6.8-6.8,6.8H11z"/>
		<path class="st61" d="M11,65c-3.7,0-6.7-3-6.7-6.7V10.2c0-3.7,3-6.7,6.7-6.7h188.2c3.7,0,6.7,3,6.7,6.7v48.1c0,3.7-3,6.7-6.7,6.7
			H11z"/>
		<path class="st62" d="M11,64.9c-3.7,0-6.6-3-6.6-6.6V10.1c0-3.7,3-6.6,6.6-6.6h188.2c3.7,0,6.6,3,6.6,6.6v48.1
			c0,3.7-3,6.6-6.6,6.6H11z"/>
		<path class="st63" d="M11,64.8c-3.6,0-6.6-3-6.6-6.6V10.1c0-3.6,3-6.6,6.6-6.6h188.2c3.6,0,6.6,3,6.6,6.6v48.1
			c0,3.6-3,6.6-6.6,6.6H11z"/>
		<path class="st64" d="M11,64.7c-3.6,0-6.5-2.9-6.5-6.5V10.1c0-3.6,2.9-6.5,6.5-6.5h188.2c3.6,0,6.5,2.9,6.5,6.5v48.1
			c0,3.6-2.9,6.5-6.5,6.5H11z"/>
		<path class="st65" d="M11,64.6c-3.5,0-6.4-2.9-6.4-6.4V10.1c0-3.5,2.9-6.4,6.4-6.4h188.1c3.5,0,6.4,2.9,6.4,6.4v48.1
			c0,3.5-2.9,6.4-6.4,6.4H11z"/>
		<path class="st66" d="M11,64.5c-3.5,0-6.4-2.9-6.4-6.4v-48c0-3.5,2.9-6.4,6.4-6.4h188.1c3.5,0,6.4,2.9,6.4,6.4v48
			c0,3.5-2.9,6.4-6.4,6.4H11z"/>
		<path class="st67" d="M11,64.4c-3.5,0-6.3-2.8-6.3-6.3v-48c0-3.5,2.8-6.3,6.3-6.3h188.1c3.5,0,6.3,2.8,6.3,6.3v48
			c0,3.5-2.8,6.3-6.3,6.3H11z"/>
		<path class="st68" d="M11,64.3c-3.4,0-6.2-2.8-6.2-6.2V10c0-3.4,2.8-6.2,6.2-6.2h188.1c3.4,0,6.2,2.8,6.2,6.2v48
			c0,3.4-2.8,6.2-6.2,6.2H11z"/>
		<path class="st69" d="M11,64.2c-3.4,0-6.1-2.8-6.1-6.1V10c0-3.4,2.8-6.1,6.1-6.1h188.1c3.4,0,6.1,2.8,6.1,6.1v48
			c0,3.4-2.8,6.1-6.1,6.1H11z"/>
		<path class="st70" d="M11,64.1c-3.3,0-6.1-2.7-6.1-6.1V10c0-3.3,2.7-6.1,6.1-6.1h188c3.3,0,6.1,2.7,6.1,6.1v48
			c0,3.3-2.7,6.1-6.1,6.1H11z"/>
		<path class="st71" d="M205,58c0,3.3-2.7,6-6,6H11c-3.3,0-6-2.7-6-6V10c0-3.3,2.7-6,6-6h188c3.3,0,6,2.7,6,6V58z"/>
	</g>
	<path class="st0" d="M11.5,67.5c-5,0-9-4-9-9v-48c0-5,4-9,9-9h188c5,0,9,4,9,9v48c0,5-4,9-9,9H11.5z"/>
	<path class="st0" d="M11.5,66.5c-4.4,0-8-3.6-8-8v-48c0-4.4,3.6-8,8-8h188c4.4,0,8,3.6,8,8v48c0,4.4-3.6,8-8,8H11.5z"/>
	<path class="st51" d="M11.5,65.5c-3.9,0-7-3.1-7-7v-48c0-3.9,3.1-7,7-7h188c3.9,0,7,3.1,7,7v48c0,3.9-3.1,7-7,7H11.5z"/>
	<linearGradient id="SVGID_1_" gradientUnits="userSpaceOnUse" x1="105.4997" y1="64.5" x2="105.4997" y2="4.5">
		<stop  offset="0" style="stop-color:#E6E6E6"/>
		<stop  offset="1.008105e-02" style="stop-color:#E7E7E7"/>
		<stop  offset="0.2307" style="stop-color:#F5F5F5"/>
		<stop  offset="0.5055" style="stop-color:#FDFDFD"/>
		<stop  offset="1" style="stop-color:#FFFFFF"/>
	</linearGradient>
	<path class="st72" d="M205.5,58.5c0,3.3-2.7,6-6,6h-188c-3.3,0-6-2.7-6-6v-48c0-3.3,2.7-6,6-6h188c3.3,0,6,2.7,6,6V58.5z"/>
	<g class="st73">
		<path class="st0" d="M199.5,5.5c2.8,0,5,2.2,5,5v48c0,2.8-2.2,5-5,5h-188c-2.8,0-5-2.2-5-5v-48c0-2.8,2.2-5,5-5H199.5 M199.5,4.5
			h-188c-3.3,0-6,2.7-6,6v48c0,3.3,2.7,6,6,6h188c3.3,0,6-2.7,6-6v-48C205.5,7.2,202.8,4.5,199.5,4.5L199.5,4.5z"/>
	</g>
</g>
<g id="Powered_By">
	<text transform="matrix(1 0 0 1.15 87.9971 31.4547)"><tspan x="0" y="0" class="st74 st75 st76">Shell in a Box </tspan><tspan x="-9.9" y="19.8" class="st74 st75 st76">Docker for Plesk</tspan></text>
</g>
<g id="Layer_4">
	<path class="st77" d="M26.4,46.7c-1.6,0-3-1.3-3-2.9s1.3-2.9,3-2.9c1.7,0,3,1.3,3,2.9S27.9,46.7,26.4,46.7z M63.5,31.1
		c-0.3-2.3-1.7-4.2-3.6-5.6l-0.7-0.6l-0.6,0.7c-1.1,1.3-1.6,3.6-1.5,5.3c0.1,1.3,0.6,2.6,1.3,3.6c-0.6,0.3-1.3,0.6-1.9,0.9
		c-1.3,0.4-2.6,0.6-3.9,0.6H15.4l-0.1,0.9c-0.3,2.7,0.1,5.6,1.3,8.2l0.6,1v0.1c3.5,5.8,9.7,8.3,16.4,8.3c13,0,23.6-5.6,28.6-17.7
		c3.3,0.1,6.6-0.7,8.2-3.9l0.4-0.7l-0.7-0.4C68.2,30.6,65.7,30.5,63.5,31.1L63.5,31.1z M44.9,28.7h-5.6v5.6h5.6L44.9,28.7L44.9,28.7
		z M44.9,21.7h-5.6v5.6h5.6L44.9,21.7L44.9,21.7z M44.9,14.5h-5.6v5.6h5.6L44.9,14.5L44.9,14.5z M51.8,28.7h-5.6v5.6h5.6L51.8,28.7
		L51.8,28.7z M30.9,28.7h-5.6v5.6H31L30.9,28.7L30.9,28.7z M38,28.7h-5.6v5.6H38L38,28.7L38,28.7z M24,28.7h-5.6v5.6h5.6L24,28.7
		L24,28.7z M38,21.7h-5.6v5.6H38L38,21.7L38,21.7z M30.9,21.7h-5.6v5.6h5.6L30.9,21.7L30.9,21.7z"/>
</g>
</svg>
