<?xml version="1.0" encoding="utf-8"?>
<!-- Generator: Adobe Illustrator 22.0.1, SVG Export Plug-In . SVG Version: 6.00 Build 0)  -->
<svg version="1.1" id="Layer_1" xmlns="http://www.w3.org/2000/svg" xmlns:xlink="http://www.w3.org/1999/xlink" x="0px" y="0px"
	 viewBox="0 0 24 24" style="enable-background:new 0 0 24 24;" xml:space="preserve">
<style type="text/css">
	.st0{fill:#EFEFEF;}
	.st1{fill:#E2E0D9;}
	.st2{fill:#D3C485;}
	.st3{fill:#BFB380;}
	.st4{fill:#999999;}
	.st5{fill:#938650;}
	.st6{fill:#727272;}
</style>
<path class="st0" d="M23.2,21.1H0.8c-0.4,0-0.8-0.4-0.8-0.8v-12c0-0.4,0.4-0.8,0.8-0.8h22.4c0.4,0,0.8,0.4,0.8,0.8v12
	C24,20.8,23.7,21.1,23.2,21.1z"/>
<path class="st1" d="M23.2,7.5H12v13.6h11.2c0.4,0,0.8-0.4,0.8-0.8v-12C24,7.9,23.7,7.5,23.2,7.5z"/>
<path class="st2" d="M24,9.1H0V3.7c0-0.4,0.4-0.8,0.8-0.8h22.4c0.4,0,0.8,0.4,0.8,0.8L24,9.1L24,9.1z"/>
<path class="st3" d="M24,3.7c0-0.4-0.4-0.8-0.8-0.8H12v6.2h12V3.7z"/>
<path class="st4" d="M7.4,17c-0.3-0.3-0.2-0.8,0.1-1.1l1.9-1.6l-1.9-1.6c-0.3-0.3-0.4-0.8-0.1-1.1c0.3-0.3,0.8-0.4,1.1-0.1l2.6,2.2
	c0.2,0.1,0.3,0.4,0.3,0.6c0,0.2-0.1,0.4-0.3,0.6l-2.6,2.2C8.1,17.4,7.7,17.4,7.4,17z"/>
<g>
	<path class="st5" d="M20.8,6.9c-0.6,0-1-0.5-1-1s0.5-1,1-1c0.6,0,1,0.5,1,1S21.4,6.9,20.8,6.9z"/>
	<path class="st5" d="M18,6.9c-0.6,0-1-0.5-1-1s0.5-1,1-1c0.6,0,1,0.5,1,1S18.5,6.9,18,6.9z"/>
	<path class="st5" d="M15.1,6.9c-0.6,0-1-0.5-1-1s0.5-1,1-1c0.6,0,1,0.5,1,1S15.7,6.9,15.1,6.9z"/>
</g>
<path class="st6" d="M16.7,17.3h-3.1c-0.4,0-0.8-0.4-0.8-0.8c0-0.4,0.4-0.8,0.8-0.8h3.1c0.4,0,0.8,0.4,0.8,0.8
	C17.5,17,17.2,17.3,16.7,17.3z"/>
</svg>
